<?xml version="1.0"?>
<svg xmlns="http://www.w3.org/2000/svg" xmlns:xlink="http://www.w3.org/1999/xlink" xmlns:svgjs="http://svgjs.com/svgjs" version="1.1" width="512" height="512" x="0" y="0" viewBox="0 0 64 64" style="enable-background:new 0 0 512 512" xml:space="preserve" class=""><rect width="64" height="64" rx="20" ry="20" fill="#453d77" shape="rounded"/><g transform="matrix(0.7,0,0,0.7,9.900000286102298,9.299999856948855)"><g xmlns="http://www.w3.org/2000/svg"><path d="m26 39.159c-1.226.538-2.578.841-4 .841s-2.774-.303-4-.841v1.479l4 4.8 4-4.8z" fill="#bbbbbb" data-original="#000000" style="" class=""/><path d="m20.542 48.847 1.076 2.153h.764l1.076-2.153-1.458-.729z" fill="#bbbbbb" data-original="#000000" style="" class=""/><path d="m14.387 42 2.197 6.59 3.839-1.92-3.892-4.67z" fill="#bbbbbb" data-original="#000000" style="" class=""/><path d="m29.613 42h-2.144l-3.892 4.67 3.839 1.92z" fill="#bbbbbb" data-original="#000000" style="" class=""/><path d="m32 30c1.103 0 2-.897 2-2s-.897-2-2-2z" fill="#bbbbbb" data-original="#000000" style="" class=""/><path d="m13 23h6c1.565 0 3.061-.748 4-2l1.2-1.601c.377-.502 1.223-.502 1.6 0l1.2 1.6c.939 1.253 2.435 2.001 4 2.001.553 0 1 .447 1 1 .347 0 .678.058 1 .142v-2.142c0-6.065-4.935-11-11-11s-11 4.935-11 11v2.142c.322-.084.653-.142 1-.142 0-.553.447-1 1-1z" fill="#bbbbbb" data-original="#000000" style="" class=""/><path d="m33 42h-1.28l-2.772 8.316c-.091.274-.298.496-.565.607-.123.052-.253.077-.383.077-.153 0-.307-.035-.447-.105l-2.305-1.153-1.199 2.399 1.771 8.859h9.18v-6h2v6h4v-11c0-4.411-3.589-8-8-8z" fill="#bbbbbb" data-original="#000000" style="" class=""/><path d="m30 24.927c-1.816-.265-3.486-1.243-4.6-2.728l-.4-.533-.4.534c-1.315 1.753-3.409 2.8-5.6 2.8h-5v5c0 4.411 3.589 8 8 8s8-3.589 8-8z" fill="#bbbbbb" data-original="#000000" style="" class=""/><path d="m16.447 50.895c-.14.07-.294.105-.447.105-.13 0-.26-.025-.383-.076-.268-.111-.475-.333-.565-.607l-2.772-8.317h-1.28c-4.411 0-8 3.589-8 8v11h4v-6h2v6h9.18l1.772-8.859-1.199-2.399z" fill="#bbbbbb" data-original="#000000" style="" class=""/><path d="m21.82 53-1.6 8h3.56l-1.6-8z" fill="#bbbbbb" data-original="#000000" style="" class=""/><path d="m12 30v-4c-1.103 0-2 .897-2 2s.897 2 2 2z" fill="#bbbbbb" data-original="#000000" style="" class=""/><path d="m60 24v-14h-4v14h-4v-8h-4v8h-4v-5h-4v5h-3v2h26v-2z" fill="#bbbbbb" data-original="#000000" style="" class=""/><path d="m46.414 7h5.586c.266 0 .52-.105.707-.293l2.293-2.293v2.586h2v-5c0-.553-.447-1-1-1h-5v2h2.586l-2 2h-5.586c-.266 0-.52.105-.707.293l-6 6 1.414 1.414z" fill="#bbbbbb" data-original="#000000" style="" class=""/><path d="m44.293 28.293-11.707 11.707h.414c.746 0 1.47.089 2.17.244l10.244-10.244h17.586v-2h-18c-.266 0-.52.105-.707.293z" fill="#bbbbbb" data-original="#000000" style="" class=""/></g></g></svg>
